<?xml version="1.0" standalone="no"?><!DOCTYPE svg PUBLIC "-//W3C//DTD SVG 1.1//EN" "http://www.w3.org/Graphics/SVG/1.1/DTD/svg11.dtd"><svg class="icon" height="512" viewBox="0 0 1024 1024" version="1.1" xmlns="http://www.w3.org/2000/svg"><path d="M1023.963874 512c0 282.724431-229.203316 511.981937-511.981937 511.981937C229.221379 1023.981937 0 794.724431 0 512 0 229.221379 229.221379 0 511.981937 0c282.778621 0 511.981937 229.221379 511.981937 512" fill="#73BBA9" /><path d="M798.373188 739.866643L572.114165 513.60762a63.780984 63.780984 0 0 0-60.800565-16.581972l-129.458599-127.887105-48.589875-94.398024-94.578656-48.680191-45.880402 45.880402 48.680191 94.578656 94.578655 48.680191 0.126443-0.126442 129.06121 127.471652a63.672605 63.672605 0 0 0 16.347151 61.57728l226.259023 226.259023a63.997742 63.997742 0 1 0 90.514447-90.514447" fill="#221F20" /><path d="M551.991815 596.174281L294.3571 341.736744l46.946128-44.670171 257.634715 254.437537z" fill="#4E5C71" /><path d="M798.373188 798.373188a64.033868 64.033868 0 0 1-90.514447 0L481.599718 572.096102a63.997742 63.997742 0 0 1 90.514447-90.496384l226.259023 226.259023a63.961616 63.961616 0 0 1 0 90.514447" fill="#EFCB87" /><path d="M852.851649 293.652637l-103.592168 103.610231a64.033868 64.033868 0 0 1-90.514447 0 64.033868 64.033868 0 0 1 0-90.514447l103.592168-103.610231a158.883472 158.883472 0 0 0-58.325913-11.126901 159.985324 159.985324 0 0 0-160.003386 160.003387c0 20.628118 4.028083 40.244699 11.144963 58.343976l-176.802116 176.784054a159.208608 159.208608 0 0 0-58.343976-11.126901 159.967261 159.967261 0 0 0-159.985324 159.985324c0 20.628118 4.028083 40.244699 11.126901 58.343976l103.610231-103.610231a63.997742 63.997742 0 0 1 90.496384 90.514447l-103.610231 103.610231a159.353113 159.353113 0 0 0 58.343976 11.126901 159.985324 159.985324 0 0 0 160.003386-159.985324c0-20.591992-4.028083-40.244699-11.1269-58.343976l176.76599-176.784054a159.172482 159.172482 0 0 0 58.362039 11.163027 159.985324 159.985324 0 0 0 159.985324-160.003387 158.594461 158.594461 0 0 0-11.126901-58.380102" fill="#221F20" /><path d="M369.760203 563.693098l193.92264-193.929409 90.508054 90.504895L460.268258 654.197993z" fill="#FFFFFF" /><path d="M336.064914 383.191674l-94.560592-48.698254-48.698254-94.560592 45.862339-45.880403 94.578656 48.680191 48.698254 94.596719z" fill="#4E5C71" /><path d="M749.241418 365.254966a63.997742 63.997742 0 1 1-90.514447-90.514447l103.592168-103.592168a159.244735 159.244735 0 0 0-58.325913-11.126901 160.003387 160.003387 0 1 0 159.985324 159.985324 159.750503 159.750503 0 0 0-11.126901-58.362039l-103.610231 103.610231zM274.740519 658.763098a63.943553 63.943553 0 0 1 90.514447 0 63.943553 63.943553 0 0 1 0 90.460257l-103.628295 103.610231a158.630587 158.630587 0 0 0 58.343976 11.163027 160.02145 160.02145 0 0 0 0-320.006774 160.02145 160.02145 0 0 0-159.985323 159.985324c0 20.628118 4.046146 40.262762 11.144964 58.380102l103.610231-103.592167z" fill="#FFFFFF" /></svg>